<?xml version="1.0" encoding="UTF-8" standalone="no"?>
<!-- Created with Inkscape (http://www.inkscape.org/) -->

<svg
   width="472.92603"
   height="66.000023"
   viewBox="0 0 472.92603 66.000026"
   version="1.1"
   id="svg1"
   inkscape:version="1.3 (0e150ed6c4, 2023-07-21)"
   xml:space="preserve"
   sodipodi:docname="drawing.svg"
   inkscape:export-filename="drawing.png"
   inkscape:export-xdpi="96"
   inkscape:export-ydpi="96"
   xmlns:inkscape="http://www.inkscape.org/namespaces/inkscape"
   xmlns:sodipodi="http://sodipodi.sourceforge.net/DTD/sodipodi-0.dtd"
   xmlns:xlink="http://www.w3.org/1999/xlink"
   xmlns="http://www.w3.org/2000/svg"
   xmlns:svg="http://www.w3.org/2000/svg"><sodipodi:namedview
     id="namedview1"
     pagecolor="#505050"
     bordercolor="#eeeeee"
     borderopacity="1"
     inkscape:showpageshadow="0"
     inkscape:pageopacity="0"
     inkscape:pagecheckerboard="0"
     inkscape:deskcolor="#505050"
     inkscape:document-units="px"
     inkscape:zoom="1.4142136"
     inkscape:cx="166.52365"
     inkscape:cy="74.246212"
     inkscape:window-width="1600"
     inkscape:window-height="829"
     inkscape:window-x="-8"
     inkscape:window-y="-8"
     inkscape:window-maximized="1"
     inkscape:current-layer="layer1" /><defs
     id="defs1"><linearGradient
       id="linearGradient4"
       inkscape:collect="always"><stop
         style="stop-color:#bc5fd3;stop-opacity:1"
         offset="0"
         id="stop3" /><stop
         style="stop-color:#892ca0;stop-opacity:1"
         offset="1"
         id="stop4" /></linearGradient><linearGradient
       inkscape:collect="always"
       xlink:href="#linearGradient4"
       id="linearGradient30"
       x1="153.70018"
       y1="-144.02118"
       x2="99.522087"
       y2="-213.42056"
       gradientUnits="userSpaceOnUse"
       gradientTransform="translate(-53.66055,225.52748)" /><linearGradient
       inkscape:collect="always"
       xlink:href="#linearGradient4"
       id="linearGradient26"
       x1="99.522087"
       y1="-213.42056"
       x2="66.509117"
       y2="-131.80125"
       gradientUnits="userSpaceOnUse"
       gradientTransform="translate(-53.66055,225.52748)" /><linearGradient
       inkscape:collect="always"
       xlink:href="#linearGradient4"
       id="linearGradient6"
       gradientUnits="userSpaceOnUse"
       x1="99.521751"
       y1="-188.98061"
       x2="146.64511"
       y2="-131.80144"
       gradientTransform="translate(-53.66055,225.52748)" /></defs><g
     inkscape:label="Layer 1"
     inkscape:groupmode="layer"
     id="layer1"
     transform="translate(221.99638,-1526.8481)"><path
       style="font-weight:600;font-size:80px;line-height:0.9;font-family:'Sevolt UI';-inkscape-font-specification:'Sevolt UI Semi-Bold';font-variation-settings:'FILL' 1, 'GRAD' 200, 'opsz' 20;text-align:center;letter-spacing:0px;text-orientation:upright;text-anchor:middle;fill:#ffffff;stroke-width:2"
       d="m -111.6197,1588.913 -15.66233,-55.87 h 9.8961 l 10.20778,40.4414 q 0.31169,1.1689 0.54546,2.8052 0.31169,1.5585 0.3896,2.8052 h 0.15585 q 0.15585,-1.0129 0.54547,-2.6493 0.3896,-1.6363 0.70129,-2.9611 l 11.61038,-40.4414 h 9.038951 l 10.83116,40.7531 q 0.311688,1.2468 0.545454,2.5715 0.311688,1.3247 0.38961,2.6493 h 0.155844 q 0.07793,-0.935 0.38961,-2.4935 0.311688,-1.5584 0.701298,-2.8831 l 9.896096,-40.5973 h 9.27272 l -15.272715,55.87 h -10.285706 l -10.597392,-39.1948 q -0.7013,-2.9609 -0.85714,-5.6882 h -0.15585 q -0.15584,1.3246 -0.38961,2.883 -0.23376,1.4806 -0.62337,2.7273 l -10.987,39.2727 z m 80.939211,0.9351 q -9.038954,0 -14.415573,-4.7532 -5.298696,-4.8312 -5.298696,-15.4286 0,-9.7403 5.06493,-14.8052 5.142853,-5.065 14.259729,-5.065 7.402591,0 11.376614,3.8183 4.051945,3.7402 5.064931,9.2726 1.012986,5.4546 -0.467532,10.5195 h -31.402572 l 0.38961,-6.4675 h 22.909072 q 0.311688,-3.2727 -1.480518,-6.3117 -1.714284,-3.1169 -6.701293,-3.1948 -5.688307,-0.078 -8.025968,3.5065 -2.259738,3.5845 -2.259738,8.8052 0,5.8441 3.116881,9.1948 3.11688,3.2727 9.272719,3.2727 5.454541,0 11.376614,-2.3376 l 1.94805,7.1688 q -2.72727,1.1689 -7.012981,1.948 -4.28571,0.8572 -7.714279,0.8572 z m 45.506456,0 q -6.15584,0 -8.727266,-2.7273 -2.493505,-2.8052 -3.038959,-6.6233 -0.467532,-3.8962 -0.38961,-7.091 l 0.935064,-7.0129 0.07792,4.6753 q 0,4.1299 1.636363,6.6234 1.636362,2.4935 4.129866,3.5843 2.493505,1.0131 4.98701,1.0131 4.129866,0 6.857137,-3.2728 2.72727,-3.2727 2.72727,-10.0519 0,-5.0649 -2.649348,-8.1818 -2.571427,-3.1169 -7.402591,-3.039 -3.584414,0 -6.15584,1.0909 -2.493504,1.0909 -5.454541,3.6624 l 0.07792,-5.5325 q 1.94805,-2.961 5.532463,-4.987 3.584413,-2.026 8.10389,-2.026 8.337655,0 12.77921,5.2987 4.519477,5.2208 4.519477,13.7922 0,9.4285 -4.753243,15.1169 -4.675321,5.6883 -13.792196,5.6883 z m -20.181802,-0.9351 v -59.0649 h 8.961031 v 50.026 l 0.233766,3.1169 -1.94805,5.922 z m 49.012947,0 v -55.87 h 8.961031 v 24.0779 h 26.727251 v -24.0779 h 9.116875 v 55.87 h -9.116875 v -23.8441 H 52.618143 v 23.8441 z m 69.272668,0 v -48.1558 H 96.87785 v -7.7142 h 41.22073 v 7.7142 h -16.12985 v 48.1558 z m 33.42854,0 v -55.87 h 13.32467 l 13.87011,34.909 q 0.62338,1.7922 1.4026,4.2078 0.77922,2.4156 1.24675,4.2078 h 0.23376 q 0.62338,-2.026 1.32468,-4.3636 0.7013,-2.3377 1.32467,-4.13 l 14.33765,-34.831 h 12.85714 v 55.87 h -8.80519 v -34.4415 q 0,-2.8052 0,-6.1558 0.0779,-3.3507 0.31169,-6.4676 H 197.631 q -0.3896,1.6364 -0.70129,2.8831 -0.31169,1.1689 -0.85715,2.5714 l -16.83115,41.6104 h -6.31168 l -16.90908,-41.4545 q -0.85714,-1.7922 -1.4026,-4.987 h -0.15584 q 0.15584,1.7143 0.15584,5.8442 0.0779,4.0519 0.0779,6.6233 v 33.974 z m 73.71422,0 v -55.87 h 9.03896 v 47.5324 h 21.81816 v 8.3376 z"
       id="text1"
       aria-label="WebHTML" /><g
       id="g4"
       transform="matrix(0.80863049,0,0,0.80863049,-226.68134,1517.0581)"
       style="stroke-width:4.67398"><path
         id="path21"
         style="fill:url(#linearGradient30);fill-opacity:1;stroke-width:18.5499;stroke-linecap:round;stroke-linejoin:round"
         d="M 45.861539,12.10692 78.87399,69.28637 H 64.76426 l -23.695193,5.2e-4 -7.054866,12.21941 h 37.804929 14.10973 5.2e-4 14.11025 L 92.98424,69.28637 59.97127,12.10692 Z M 26.958817,69.28689 19.903951,81.5063 h 5.17e-4 z" /><path
         id="path20"
         style="fill:url(#linearGradient26);fill-opacity:1;stroke-width:18.5499;stroke-linecap:round;stroke-linejoin:round"
         d="M 45.861539,12.10692 38.806156,24.32684 12.848568,69.28689 5.794218,81.5063 5.793701,81.50682 12.848568,93.72622 19.903951,81.5063 26.958817,69.28689 45.861539,36.54677 64.76426,69.28637 H 78.87399 L 52.91641,24.32684 Z" /><path
         id="path23"
         style="fill:url(#linearGradient6);fill-opacity:1;stroke-width:18.5499;stroke-linecap:round;stroke-linejoin:round"
         d="m 12.848568,93.72622 14.110453,1.8e-4 51.915339,-9e-5 14.10949,-4.6e-4 7.1e-4,1.9e-4 7.05488,-12.2194 -14.11045,-1.8e-4 -14.10976,2e-5 L 34.014099,81.5063 52.91606,48.76626 45.861199,36.54688 19.903894,81.50657 Z" /><text
         xml:space="preserve"
         style="font-size:234.95px;fill:#000000;stroke-width:65.9507;stroke-linecap:square;paint-order:stroke fill markers"
         x="-90.956253"
         y="182.84064"
         id="text1-9"><tspan
           sodipodi:role="line"
           id="tspan1"
           style="font-style:normal;font-variant:normal;font-weight:normal;font-stretch:normal;font-size:234.95px;font-family:'Videand Circles';-inkscape-font-specification:'Videand Circles';stroke-width:65.9507"
           x="-90.956253"
           y="182.84064" /><tspan
           sodipodi:role="line"
           style="font-style:normal;font-variant:normal;font-weight:normal;font-stretch:normal;font-size:234.95px;font-family:'Videand Circles';-inkscape-font-specification:'Videand Circles';stroke-width:65.9507"
           x="-90.956253"
           y="482.96805"
           id="tspan2" /></text></g></g></svg>
