<?xml version="1.0" encoding="UTF-8" standalone="no"?>
<!-- Created with Inkscape (http://www.inkscape.org/) -->

<svg
   width="2103.8914"
   height="159.4664"
   viewBox="0 0 2103.8914 159.46641"
   version="1.1"
   id="svg1"
   inkscape:version="1.3 (0e150ed6c4, 2023-07-21)"
   sodipodi:docname="wordmark.svg"
   xmlns:inkscape="http://www.inkscape.org/namespaces/inkscape"
   xmlns:sodipodi="http://sodipodi.sourceforge.net/DTD/sodipodi-0.dtd"
   xmlns="http://www.w3.org/2000/svg"
   xmlns:svg="http://www.w3.org/2000/svg">
  <sodipodi:namedview
     id="namedview1"
     pagecolor="#505050"
     bordercolor="#eeeeee"
     borderopacity="1"
     inkscape:showpageshadow="0"
     inkscape:pageopacity="0"
     inkscape:pagecheckerboard="0"
     inkscape:deskcolor="#505050"
     inkscape:document-units="px"
     inkscape:zoom="0.5"
     inkscape:cx="1084"
     inkscape:cy="88"
     inkscape:window-width="1600"
     inkscape:window-height="829"
     inkscape:window-x="-8"
     inkscape:window-y="-8"
     inkscape:window-maximized="1"
     inkscape:current-layer="layer1" />
  <defs
     id="defs1" />
  <g
     inkscape:label="Layer 1"
     inkscape:groupmode="layer"
     id="layer1"
     transform="translate(611.22576,-1230.9469)">
    <path
       d="m -611.22576,1387 q 0,0 0,0 0,0 0,0 l 57.81324,-152.7464 q 0,0 0,0 0,0 0,0 h 26.87995 q 0,0 0,0 0,0 0,0 L -468.93266,1387 q 0,0 0,0 0,0 0,0 h -30.39995 q 0,0 0,0 0,0 0,0 l -35.83994,-102.1865 -4.90666,-15.8933 h -0.53333 l -4.90666,15.8933 L -581.67914,1387 q 0,0 0,0 0,0 0,0 z m 26.98662,-34.5599 7.78665,-21.3333 h 69.65323 l 7.99998,21.3333 z m 163.73315,37.8666 q -18.87997,0 -29.43996,-10.88 -10.45331,-10.9867 -10.45331,-30.9333 v -71.3599 q 0,0 0,0 0,0 0,0 h 27.30662 q 0,0 0,0 0,0 0,0 v 66.5599 q 0,11.9467 5.43999,18.3466 5.54666,6.4 15.89331,6.4 10.87998,0 18.1333,-8.2133 7.25333,-8.2133 7.25333,-20.0533 v -63.0399 q 0,0 0,0 0,0 0,0 h 27.30662 q 0,0 0,0 0,0 0,0 V 1387 q 0,0 0,0 0,0 0,0 h -25.91996 q 0,0 0,0 0,0 0,0 v -25.6 l 10.55998,10.4534 h -11.09331 q -4.69333,8.2133 -14.07998,13.3333 -9.27998,5.12 -20.90663,5.12 z M -336.55946,1387 q 0,0 0,0 0,0 0,0 v -109.8665 q 0,0 0,0 0,0 0,0 h 26.02662 q 0,0 0,0 0,0 0,0 v 19.9466 l -2.02666,-2.7733 h 2.66666 q 3.62666,-9.1733 12.15998,-14.8266 8.53332,-5.6534 18.02664,-5.6534 2.66666,0 5.54666,0.4267 2.98666,0.4267 5.33332,1.28 2.34666,0.7467 2.34666,0.7467 0,0 0,0 v 26.0266 q 0,0 0,0 0,0 -3.09333,-1.0667 -3.09332,-1.0666 -6.61332,-1.7066 -3.41333,-0.64 -6.29332,-0.64 -11.41332,0 -19.0933,8.4266 -7.67999,8.32 -7.67999,21.3333 V 1387 q 0,0 0,0 0,0 0,0 z m 131.62651,3.3067 q -25.17329,0 -41.59993,-16.4267 -16.42664,-16.5333 -16.42664,-41.8132 v 0 q 0,-25.7067 16.42664,-41.92 16.5333,-16.32 41.59993,-16.32 25.06663,0 41.49327,16.4267 16.42664,16.32 16.42664,41.8133 v 0 q 0,25.2799 -16.42664,41.8132 -16.31998,16.4267 -41.49327,16.4267 z m 0,-23.68 q 13.22665,0 22.18663,-9.4933 9.06665,-9.6 9.06665,-25.0666 v 0 q 0,-15.68 -9.17332,-25.0667 -9.06665,-9.4933 -22.07996,-9.4933 -13.33331,0 -22.39996,9.4933 -8.95999,9.4933 -8.95999,25.0667 v 0 q 0,15.4666 8.95999,25.0666 9.06665,9.4933 22.39996,9.4933 z M -129.51958,1387 q 0,0 0,0 0,0 0,0 v -109.8665 q 0,0 0,0 0,0 0,0 h 26.02663 q 0,0 0,0 0,0 0,0 v 19.9466 l -2.02667,-2.7733 h 2.66667 q 3.626657,-9.1733 12.159976,-14.8266 8.53332,-5.6534 18.026638,-5.6534 2.666663,0 5.546658,0.4267 2.986662,0.4267 5.333325,1.28 2.346663,0.7467 2.346663,0.7467 0,0 0,0 v 26.0266 q 0,0 0,0 0,0 -3.093329,-1.0667 -3.093328,-1.0666 -6.613322,-1.7066 -3.413328,-0.64 -6.293324,-0.64 -11.413315,0 -19.093302,8.4266 -7.679993,8.32 -7.679993,21.3333 V 1387 q 0,0 0,0 0,0 0,0 z m 113.279712,3.3067 q -17.919972,0 -28.906621,-9.92 -10.986649,-9.92 -10.986649,-25.92 v 0 q 0,-16.7466 12.693313,-26.5599 12.79998,-9.92 33.49328,-9.92 8.4266532,0 16.106641,1.7066 7.679988,1.7067 13.119979,4.48 v -6.6133 q 0,-10.4533 -7.146655,-16.5333 -7.039989,-6.08 -18.6666371,-6.08 -5.3333249,0 -10.2399839,1.28 -4.799992,1.28 -9.279985,4.0533 -4.373326,2.6667 -7.466655,5.76 -3.093328,3.0934 -3.093328,3.0934 0,0 0,0 l -15.893308,-14.5067 q 0,0 0,0 0,0 5.013325,-4.5866 5.013326,-4.5867 11.519982,-8.4267 6.613323,-3.9467 14.719976,-5.8667 8.213321,-1.92 17.1733063,-1.92 23.2532967,0 36.4799417,11.52 13.226646,11.4133 13.226646,32.2133 V 1387 q 0,0 0,0 0,0 0,0 H 19.493408 q 0,0 0,0 0,0 0,0 v -24.1066 l 6.719989,9.28 -7.253321,0.1066 q -5.013326,8 -14.293311,13.0133 -9.2799852,5.0134 -20.906633,5.0134 z m 6.933322,-19.52 q 12.3733136,0 20.479967,-8.64 8.106654,-8.7466 8.106654,-22.08 v -0.32 q -4.586659,-2.7733 -10.8799826,-4.3733 -6.1866568,-1.7066 -13.333312,-1.7066 -11.4133154,0 -18.3466374,4.7999 -6.933322,4.6934 -6.933322,14.4 v 0 q 0,8.5333 5.759991,13.2267 5.866657,4.6933 15.146642,4.6933 z m 117.652946,19.52 q -11.093315,0 -19.519969,-2.56 -8.426653,-2.56 -15.146642,-7.36 -6.719989,-4.8 -10.559983,-10.6667 -3.839994,-5.9733 -3.839994,-5.9733 0,0 0,0 l 18.55997,-12.48 q 0,0 0,0 0,0 2.879996,4.16 2.879995,4.0533 7.039988,7.2533 4.26666,3.2 9.386652,5.0134 5.119992,1.7066 12.266652,1.7066 8.85331,0 13.97331,-3.3066 5.11999,-3.3067 5.11999,-9.6 v 0 q 0,-5.3333 -4.58666,-8.4267 -4.47999,-3.0933 -20.47997,-6.72 -20.906632,-5.0133 -30.186617,-13.3333 -9.279985,-8.32 -9.279985,-21.3333 v 0 q 0,-14.9333 12.47998,-23.8933 12.47998,-8.96 31.253282,-8.96 9.59999,0 17.06664,2.1334 7.57332,2.1333 13.65331,5.9733 6.07999,3.84 9.70665,8.7467 3.73333,4.7999 3.73333,4.7999 0,0 0,0 l -17.70664,12.5867 q 0,0 0,0 0,0 -2.45333,-3.0933 -2.45333,-3.0934 -6.39999,-5.5467 -3.83999,-2.4533 -8.31998,-3.6267 -4.37333,-1.1733 -9.59999,-1.1733 -7.893319,0 -12.799978,3.3067 -4.906659,3.2 -4.906659,7.7866 v 0 q 0,5.0134 4.373327,8.2134 4.373326,3.0933 21.0133,7.1466 21.11997,4.9067 30.18662,13.2267 9.17332,8.2133 9.17332,20.9066 v 0 q 0,15.8933 -12.79998,25.4933 -12.69332,9.6 -33.27995,9.6 z m 114.66633,0 q -25.17329,0 -41.59994,-16.4267 -16.42664,-16.5333 -16.42664,-41.8132 v 0 q 0,-25.7067 16.42664,-41.92 16.53331,-16.32 41.59994,-16.32 25.06663,0 41.49327,16.4267 16.42664,16.32 16.42664,41.8133 v 0 q 0,25.2799 -16.42664,41.8132 -16.31998,16.4267 -41.49327,16.4267 z m 0,-23.68 q 13.22664,0 22.18663,-9.4933 9.06665,-9.6 9.06665,-25.0666 v 0 q 0,-15.68 -9.17332,-25.0667 -9.06665,-9.4933 -22.07996,-9.4933 -13.33331,0 -22.39997,9.4933 -8.95998,9.4933 -8.95998,25.0667 v 0 q 0,15.4666 8.95998,25.0666 9.06666,9.4933 22.39997,9.4933 z M 305.46608,1387 q 0,0 0,0 0,0 0,0 v -120.1065 q 0,-16.3199 10.02665,-26.1333 10.13332,-9.8133 27.09329,-9.8133 3.94666,0 7.67999,0.5333 3.83999,0.4267 7.25332,1.28 3.51999,0.8534 3.51999,0.8534 0,0 0,0 v 21.9733 q 0,0 0,0 0,0 -2.45333,-0.64 -2.34666,-0.64 -5.22665,-1.0667 -2.77333,-0.4267 -5.97333,-0.4267 -6.39999,0 -10.45331,3.84 -4.05333,3.7334 -4.05333,10.88 v 16 4.3733 V 1387 q 0,0 0,0 0,0 0,0 z m 101.11984,3.3067 q -15.67998,0 -24.95996,-8.64 -9.17332,-8.7467 -9.17332,-25.7067 v -108.4798 q 0,0 0,0 0,0 0,0 h 27.30662 q 0,0 0,0 0,0 0,0 v 104.3199 q 0,8.3199 3.30666,12.1599 3.41333,3.84 9.91999,3.84 2.13333,0 4.26666,-0.32 2.23999,-0.4266 5.54666,-1.4933 3.30666,-1.0667 3.30666,-1.0667 0,0 0,0 v 21.9733 q 0,0 0,0 0,0 -3.73333,1.0667 -3.73333,1.1733 -7.46666,1.7067 -3.62666,0.64 -8.31998,0.64 z m -118.71981,-91.1999 q 0,0 0,0 0,0 0,0 v -21.8666 q 0,0 0,0 0,0 0,0 h 31.46661 v 21.8666 z m 100.15984,0 v -21.8666 h 38.61327 q 0,0 0,0 0,0 0,0 v 21.8666 q 0,0 0,0 0,0 0,0 z m -69.01323,-0.1067 v -21.8666 h 68.90656 v 21.8666 z"
       id="text1"
       style="font-size:213.333px;line-height:0.9;font-family:'Jupiter Logo';-inkscape-font-specification:'Jupiter Logo';font-feature-settings:'ss02', 'ss05';text-align:center;letter-spacing:0px;text-orientation:upright;text-anchor:middle;fill:#ffffff;stroke-width:2"
       aria-label="Aurorasoft" />
    <path
       style="font-size:213.333px;line-height:0.9;font-family:'Brand Sans';-inkscape-font-specification:'Brand Sans';font-feature-settings:'ss02', 'ss05';text-align:center;letter-spacing:0px;text-orientation:upright;text-anchor:middle;fill:#ffffff;stroke-width:2"
       d="m 534.16105,1387 -41.17327,-152.7464 h 23.03996 l 26.02663,103.4665 2.55999,11.9466 h 1.06667 l 3.19999,-11.9466 34.55995,-82.9866 h 16.8533 l 33.06662,82.9866 3.19999,11.7333 h 1.06667 l 2.55999,-11.7333 26.02663,-103.4665 H 689.0408 L 648.2942,1387 h -17.49331 l -34.98661,-87.6799 -3.41333,-13.0133 h -1.06666 l -3.62666,13.0133 L 551.22768,1387 Z m 214.1861,3.4133 q -15.99998,0 -28.37329,-7.4666 -12.37332,-7.4667 -19.4133,-20.48 -7.03999,-13.0133 -7.03999,-29.6533 0,-15.5733 6.61332,-28.7999 6.82666,-13.2267 18.7733,-21.12 11.94665,-8.1067 28.15996,-8.1067 16.42664,0 28.15995,7.2534 11.73332,7.2533 17.91997,19.8399 6.39999,12.3733 6.39999,28.3733 0,1.92 -0.21333,3.84 -0.21333,1.7067 -0.42667,2.7733 h -93.43985 v -16.2133 h 72.95989 q -0.21334,-4.2666 -2.13333,-9.1733 -1.70667,-4.9066 -5.54666,-9.1733 -3.83999,-4.2667 -9.59998,-6.8267 -5.76,-2.7733 -14.07998,-2.7733 -10.02665,0 -17.70664,5.3333 -7.46666,5.12 -11.51998,14.08 -4.05333,8.7467 -4.05333,20.48 0,13.0133 4.90666,21.9733 5.11999,8.7466 13.22665,13.0133 8.10665,4.2667 17.06663,4.2667 11.51999,0 18.98664,-5.3334 7.67999,-5.3333 12.15998,-13.2266 l 17.06664,8.5333 q -6.82665,12.5867 -18.98664,20.6933 -11.94664,7.8933 -29.86661,7.8933 z m 128.42632,0 q -8.53332,0 -15.57331,-2.7733 -7.03999,-2.56 -12.37331,-6.8267 -5.11999,-4.2666 -7.89332,-9.1733 h -1.06667 V 1387 h -19.62663 v -152.7464 h 20.6933 v 44.1599 l -1.06667,15.36 h 1.06667 q 2.77333,-4.9067 7.89332,-9.1733 5.33332,-4.48 12.37331,-7.04 7.03999,-2.7734 15.57331,-2.7734 14.93331,0 26.66663,7.4667 11.94664,7.4667 18.7733,20.48 6.82665,13.0133 6.82665,29.8666 0,16.8533 -6.82665,29.8666 -6.82666,13.0133 -18.7733,20.48 -11.73332,7.4666 -26.66663,7.4666 z m -2.55999,-18.7733 q 8.95998,0 16.8533,-4.6933 7.89332,-4.6933 12.58665,-13.44 4.90666,-8.96 4.90666,-20.9066 0,-12.16 -4.90666,-20.6933 -4.69333,-8.7467 -12.58665,-13.44 -7.89332,-4.9067 -16.8533,-4.9067 -8.95999,0 -16.85331,4.9067 -7.89332,4.6933 -12.79998,13.44 -4.69333,8.7466 -4.69333,20.6933 0,11.9466 4.69333,20.6933 4.90666,8.7466 12.79998,13.6533 7.89332,4.6933 16.85331,4.6933 z m 79.14663,15.36 v -152.7464 h 20.90664 V 1387 Z m 11.30665,-68.2666 v -19.8399 h 90.87984 v 19.8399 z M 1049.1466,1387 v -152.7464 h 20.9067 V 1387 Z m 85.3332,0 v -141.0131 h 20.6933 V 1387 Z m -42.8799,-132.9065 v -19.8399 h 106.2398 v 19.8399 z M 1219.3863,1387 v -152.7464 h 24.7466 l 50.9866,92.5865 h 1.0667 l 50.7732,-92.5865 h 24.7467 V 1387 h -20.48 v -91.7332 l 1.0667,-28.1599 h -1.0667 l -49.2799,87.4665 h -12.5867 l -49.2799,-87.4665 h -1.0667 l 1.0667,28.1599 V 1387 Z m 186.2395,0 v -152.7464 h 20.9066 V 1367.16 h 66.1333 V 1387 Z"
       id="text2"
       aria-label="WebHTML" />
  </g>
</svg>
