<?xml version="1.0" encoding="UTF-8" standalone="no"?>
<!-- Created with Inkscape (http://www.inkscape.org/) -->

<svg
   width="1676.7999"
   height="1676.7999"
   viewBox="0 0 1676.7998 1676.8"
   version="1.1"
   id="svg1"
   inkscape:version="1.3 (0e150ed6c4, 2023-07-21)"
   sodipodi:docname="favicon.svg"
   inkscape:export-filename="favicon.png"
   inkscape:export-xdpi="96"
   inkscape:export-ydpi="96"
   xml:space="preserve"
   xmlns:inkscape="http://www.inkscape.org/namespaces/inkscape"
   xmlns:sodipodi="http://sodipodi.sourceforge.net/DTD/sodipodi-0.dtd"
   xmlns:xlink="http://www.w3.org/1999/xlink"
   xmlns="http://www.w3.org/2000/svg"
   xmlns:svg="http://www.w3.org/2000/svg"><sodipodi:namedview
     id="namedview1"
     pagecolor="#505050"
     bordercolor="#eeeeee"
     borderopacity="1"
     inkscape:showpageshadow="0"
     inkscape:pageopacity="0"
     inkscape:pagecheckerboard="0"
     inkscape:deskcolor="#505050"
     inkscape:document-units="px"
     inkscape:zoom="0.11313708"
     inkscape:cx="795.49513"
     inkscape:cy="1051.8213"
     inkscape:window-width="1600"
     inkscape:window-height="829"
     inkscape:window-x="-8"
     inkscape:window-y="-8"
     inkscape:window-maximized="1"
     inkscape:current-layer="layer1" /><defs
     id="defs1"><clipPath
       clipPathUnits="userSpaceOnUse"
       id="clipPath65"><path
         fill="currentColor"
         d="m 1870.4324,3243.2487 q -79.4309,1.8473 -145.0075,45.2571 -65.5766,43.4099 -95.1323,116.3755 -29.5556,72.9655 -13.8542,150.5491 15.7015,77.5836 71.1183,133.0005 7.3889,7.3889 11.0834,16.6251 l 16.6251,59.1113 h 310.3344 l 16.6251,-59.1113 q 3.6944,-9.2362 11.0833,-16.6251 55.4169,-55.4169 71.1184,-133.0005 15.7014,-77.5836 -13.8543,-150.5491 -29.5556,-72.9656 -95.1323,-116.3755 -65.5766,-43.4098 -145.0074,-45.2571 z m 140.3894,578.1827 H 1730.043 l 14.7778,51.7224 q 7.3889,27.7084 30.4793,45.2571 23.0904,17.5487 52.646,19.3959 h 84.9725 q 29.5557,-1.8472 52.6461,-19.3959 23.0903,-17.5487 30.4792,-45.2571 z"
         id="path65"
         style="fill:#ffffff;fill-opacity:1;stroke:none;stroke-width:0.999999" /></clipPath><linearGradient
       id="linearGradient141"
       inkscape:label="Red"><stop
         style="stop-color:#ff2d55;stop-opacity:1;"
         offset="0"
         id="stop140" /><stop
         style="stop-color:#ff2d55;stop-opacity:0;"
         offset="1"
         id="stop141" /></linearGradient><linearGradient
       id="linearGradient157"
       inkscape:label="Orange"><stop
         style="stop-color:#f39431;stop-opacity:1;"
         offset="0"
         id="stop156" /><stop
         style="stop-color:#f39431;stop-opacity:0;"
         offset="1"
         id="stop157" /></linearGradient><linearGradient
       id="linearGradient159"
       inkscape:label="Yellow"><stop
         style="stop-color:#fbcc33;stop-opacity:1;"
         offset="0"
         id="stop158" /><stop
         style="stop-color:#fbcc33;stop-opacity:0;"
         offset="1"
         id="stop159" /></linearGradient><linearGradient
       id="linearGradient161"
       inkscape:label="Green"><stop
         style="stop-color:#5fc85a;stop-opacity:1;"
         offset="0"
         id="stop160" /><stop
         style="stop-color:#5fc85a;stop-opacity:0;"
         offset="1"
         id="stop161" /></linearGradient><linearGradient
       id="linearGradient163"
       inkscape:label="Blue"><stop
         style="stop-color:#0379fb;stop-opacity:1;"
         offset="0"
         id="stop162" /><stop
         style="stop-color:#0379fb;stop-opacity:0;"
         offset="1"
         id="stop163" /></linearGradient><linearGradient
       id="linearGradient165"
       inkscape:label="Purple"><stop
         style="stop-color:#af52de;stop-opacity:1;"
         offset="0"
         id="stop164" /><stop
         style="stop-color:#af52de;stop-opacity:0;"
         offset="1"
         id="stop165" /></linearGradient><linearGradient
       id="linearGradient6"
       inkscape:collect="always"
       inkscape:label="Reflection"><stop
         style="stop-color:#ffffff;stop-opacity:1;"
         offset="0"
         id="stop6" /><stop
         style="stop-color:#ffffff;stop-opacity:0;"
         offset="0.5"
         id="stop8" /><stop
         style="stop-color:#ffffff;stop-opacity:1;"
         offset="0.75"
         id="stop9" /><stop
         style="stop-color:#ffffff;stop-opacity:0;"
         offset="1"
         id="stop7" /></linearGradient><filter
       style="color-interpolation-filters:sRGB"
       inkscape:label="Drop Shadow"
       id="filter64"
       x="-0.037002575"
       y="-0.027643476"
       width="1.0740051"
       height="1.055287"><feFlood
         result="flood"
         in="SourceGraphic"
         flood-opacity="0.658824"
         flood-color="rgb(255,255,255)"
         id="feFlood63" /><feGaussianBlur
         result="blur"
         in="SourceGraphic"
         stdDeviation="7.9999999"
         id="feGaussianBlur63" /><feOffset
         result="offset"
         in="blur"
         dx="0.000000"
         dy="0.000000"
         id="feOffset63" /><feComposite
         result="comp1"
         operator="out"
         in="flood"
         in2="offset"
         id="feComposite63" /><feComposite
         result="comp2"
         operator="atop"
         in="comp1"
         in2="SourceGraphic"
         id="feComposite64" /></filter><clipPath
       clipPathUnits="userSpaceOnUse"
       id="clipPath9"><path
         fill="currentColor"
         d="m -1711.4626,28.537835 q -47.6986,-44.02936 -111.9083,-42.19486 -64.2096,1.8346 -111.9082,49.53306 l -755.8395,755.839625 q -47.6986,47.6985 -47.6986,113.7427 0,66.0443 47.6986,113.74294 l 106.4046,106.4046 q 25.6839,29.353 62.3751,27.5184 36.6912,-1.8346 66.0441,-20.1802 36.6914,-25.6838 82.5554,-20.1801 45.864,5.5037 77.0515,36.6912 31.1877,31.1875 36.6914,77.0515 5.5037,45.8642 -20.1802,82.5554 -18.3457,29.3529 -20.1803,66.0441 -1.8346,36.6914 27.5186,66.0443 l 102.7353,102.7354 q 47.6987,47.6987 115.5775,45.8642 67.8787,-1.8346 115.5774,-49.5333 l 755.8394,-803.53814 q 47.6987,-51.3677 44.0296,-117.4118 -3.6692,-66.0444 -51.3679,-110.0738 l -102.7353,-95.39727 q -36.6912,-33.0221 -80.7208,-23.8493 -44.0295,9.1728 -69.7133,38.5258 -36.6912,40.36047 -88.0591,42.19497 -51.3676,1.8346 -89.8934,-33.022 -38.5259,-34.85677 -40.3605,-88.05907 -1.8345,-53.2023 31.1877,-89.8937 29.353,-29.3529 33.0221,-75.2169 3.6691,-45.864 -29.353,-78.8863 z"
         id="path10"
         style="fill:#ffffff;stroke:none;stroke-width:0.999998" /></clipPath><filter
       style="color-interpolation-filters:sRGB"
       inkscape:label="Drop Shadow"
       id="filter18"
       x="-0.03554016"
       y="-0.035461519"
       width="1.0710803"
       height="1.070923"><feFlood
         result="flood"
         in="SourceGraphic"
         flood-opacity="1.000000"
         flood-color="rgb(255,255,255)"
         id="feFlood17" /><feGaussianBlur
         result="blur"
         in="SourceGraphic"
         stdDeviation="23.693441"
         id="feGaussianBlur17" /><feOffset
         result="offset"
         in="blur"
         dx="0.000000"
         dy="0.000000"
         id="feOffset17" /><feComposite
         result="comp1"
         operator="out"
         in="flood"
         in2="offset"
         id="feComposite17" /><feComposite
         result="comp2"
         operator="atop"
         in="comp1"
         in2="SourceGraphic"
         id="feComposite18" /></filter><filter
       style="color-interpolation-filters:sRGB"
       inkscape:label="Drop Shadow"
       id="filter23"
       x="-0.029999997"
       y="-0.035154924"
       width="1.0599999"
       height="1.0703098"><feFlood
         result="flood"
         in="SourceGraphic"
         flood-opacity="0.803922"
         flood-color="rgb(255,255,255)"
         id="feFlood22" /><feGaussianBlur
         result="blur"
         in="SourceGraphic"
         stdDeviation="19.999998"
         id="feGaussianBlur22" /><feOffset
         result="offset"
         in="blur"
         dx="0.000000"
         dy="0.000000"
         id="feOffset22" /><feComposite
         result="comp1"
         operator="out"
         in="flood"
         in2="offset"
         id="feComposite22" /><feComposite
         result="comp2"
         operator="atop"
         in="comp1"
         in2="SourceGraphic"
         id="feComposite23" /></filter><clipPath
       clipPathUnits="userSpaceOnUse"
       id="clipPath31"><path
         fill="currentColor"
         d="m -2409.7132,2369.9872 q 0,-80.7692 55.7692,-136.5384 55.7693,-55.7693 132.6923,-55.7693 h 1223.07694 q 76.9231,0 132.6924,55.7693 55.7692,55.7692 55.7692,136.5384 v 742.3077 q 0,76.9231 -55.7692,132.6923 -55.7693,55.7693 -132.6924,55.7693 H -2221.2517 q -76.923,0 -132.6923,-55.7693 -55.7692,-55.7692 -55.7692,-132.6923 z m 288.4615,1069.2308 q -19.2307,0 -34.6153,15.3846 -15.3847,15.3846 -15.3847,36.5385 0,21.1538 15.3847,36.5384 15.3846,15.3846 34.6153,15.3846 h 1023.0769 q 19.2308,0 34.6154,-15.3846 15.3846,-15.3846 15.3846,-36.5384 0,-21.1539 -15.3846,-36.5385 -15.3846,-15.3846 -34.6154,-15.3846 z"
         id="path31"
         style="fill:#ffffff;stroke:none;stroke-width:1" /></clipPath><filter
       style="color-interpolation-filters:sRGB"
       inkscape:label="Drop Shadow"
       id="filter36"
       x="-0.024"
       y="-0.024"
       width="1.048"
       height="1.048"><feFlood
         result="flood"
         in="SourceGraphic"
         flood-opacity="0.803922"
         flood-color="rgb(255,255,255)"
         id="feFlood35" /><feGaussianBlur
         result="blur"
         in="SourceGraphic"
         stdDeviation="16"
         id="feGaussianBlur35" /><feOffset
         result="offset"
         in="blur"
         dx="0.000000"
         dy="0.000000"
         id="feOffset35" /><feComposite
         result="comp1"
         operator="out"
         in="flood"
         in2="offset"
         id="feComposite35" /><feComposite
         result="comp2"
         operator="atop"
         in="comp1"
         in2="SourceGraphic"
         id="feComposite36" /></filter><linearGradient
       inkscape:collect="always"
       xlink:href="#linearGradient6"
       id="linearGradient38"
       x1="-1127.8408"
       y1="4531.5518"
       x2="118.12392"
       y2="6022.9961"
       gradientUnits="userSpaceOnUse"
       gradientTransform="translate(617.0212,-1017.0213)" /><radialGradient
       inkscape:collect="always"
       xlink:href="#linearGradient141"
       id="radialGradient42"
       cx="-510.81961"
       cy="3514.5305"
       fx="-510.81961"
       fy="3514.5305"
       r="800"
       gradientUnits="userSpaceOnUse" /><radialGradient
       inkscape:collect="always"
       xlink:href="#linearGradient157"
       id="radialGradient43"
       gradientUnits="userSpaceOnUse"
       cx="191.30804"
       cy="3416.6582"
       fx="191.30804"
       fy="3416.6582"
       r="800" /><radialGradient
       inkscape:collect="always"
       xlink:href="#linearGradient159"
       id="radialGradient44"
       gradientUnits="userSpaceOnUse"
       cx="893.43573"
       cy="3514.5305"
       fx="893.43573"
       fy="3514.5305"
       r="800" /><radialGradient
       inkscape:collect="always"
       xlink:href="#linearGradient161"
       id="radialGradient45"
       gradientUnits="userSpaceOnUse"
       cx="893.43573"
       cy="4916.6582"
       fx="893.43573"
       fy="4916.6582"
       r="800" /><radialGradient
       inkscape:collect="always"
       xlink:href="#linearGradient163"
       id="radialGradient46"
       gradientUnits="userSpaceOnUse"
       cx="191.30804"
       cy="5016.6582"
       fx="191.30804"
       fy="5016.6582"
       r="800" /><radialGradient
       inkscape:collect="always"
       xlink:href="#linearGradient165"
       id="radialGradient47"
       gradientUnits="userSpaceOnUse"
       cx="-508.69189"
       cy="4918.7861"
       fx="-508.69189"
       fy="4918.7861"
       r="800" /><filter
       inkscape:collect="always"
       style="color-interpolation-filters:sRGB"
       id="filter50"
       x="-0.081120003"
       y="-0.081120003"
       width="1.16224"
       height="1.16224"><feGaussianBlur
         inkscape:collect="always"
         stdDeviation="54.08"
         id="feGaussianBlur50" /></filter><clipPath
       clipPathUnits="userSpaceOnUse"
       id="clipPath50"><path
         fill="currentColor"
         d="m -272.5217,3416.6582 q -140.4255,0 -238.2979,97.8724 -97.8723,97.8723 -97.8723,238.2978 v 927.6596 q 4.2553,140.4255 100,238.2979 95.7447,97.8723 236.1702,97.8723 h 927.6595 q 140.4256,-4.2553 238.2979,-100 97.8724,-95.7447 97.8724,-236.1702 v -927.6596 q 0,-140.4255 -97.8724,-238.2978 -97.8723,-97.8724 -238.2979,-97.8724 z m 710.6383,485.1064 263.8298,268.0851 q 21.2766,21.2766 21.2766,46.8085 0,25.5319 -21.2766,46.8085 l -263.8298,268.0851 q -21.2766,17.0213 -48.9362,17.0213 -27.6596,0 -46.8085,-19.1489 -19.1489,-19.149 -19.1489,-46.8085 0,-27.6596 21.2766,-48.9362 L 561.5208,4216.6582 344.4996,3999.6369 q -29.7873,-29.7872 -19.149,-65.9574 10.6383,-36.1702 48.9362,-46.8085 38.2979,-10.6383 63.8298,14.8936 z m -400,97.8723 -217.0213,217.0213 217.0213,217.0213 q 29.7872,29.7872 19.1489,65.9574 -10.6383,36.1702 -48.9361,46.8085 -38.2979,10.6383 -63.8298,-14.8936 l -263.8298,-268.0851 q -21.2766,-21.2766 -21.2766,-46.8085 0,-25.5319 21.2766,-46.8085 l 263.8298,-268.0851 q 25.5319,-25.5319 63.8298,-14.8936 38.2978,10.6383 48.9361,46.8085 10.6383,36.1702 -19.1489,65.9574 z"
         id="path50"
         style="fill:#ffffff;stroke:none;stroke-width:1" /></clipPath></defs><g
     inkscape:label="Layer 1"
     inkscape:groupmode="layer"
     id="layer1"
     transform="translate(647.0919,-3378.2582)"><g
       id="g50"
       style="filter:url(#filter50)"
       clip-path="url(#clipPath50)"><path
         fill="currentColor"
         d="m -272.5217,3416.6582 q -140.4255,0 -238.2979,97.8724 -97.8723,97.8723 -97.8723,238.2978 v 927.6596 q 4.2553,140.4255 100,238.2979 95.7447,97.8723 236.1702,97.8723 h 927.65949 q 140.42561,-4.2553 238.29791,-100 97.8724,-95.7447 97.8724,-236.1702 v -927.6596 q 0,-140.4255 -97.8724,-238.2978 -97.8723,-97.8724 -238.29791,-97.8724 z m 710.6383,485.1064 263.82979,268.0851 q 21.27661,21.2766 21.27661,46.8085 0,25.5319 -21.27661,46.8085 L 438.1166,4531.5518 q -21.2766,17.0213 -48.9362,17.0213 -27.6596,0 -46.8085,-19.1489 -19.1489,-19.149 -19.1489,-46.8085 0,-27.6596 21.2766,-48.9362 L 561.52079,4216.6582 344.4996,3999.6369 q -29.7873,-29.7872 -19.149,-65.9574 10.6383,-36.1702 48.9362,-46.8085 38.2979,-10.6383 63.8298,14.8936 z M 38.116595,3999.6369 -178.9047,4216.6582 38.116595,4433.6795 q 29.7872,29.7872 19.1489,65.9574 -10.6383,36.1702 -48.9361,46.8085 -38.2979,10.6383 -63.8298,-14.8936 L -319.3302,4263.4667 q -21.2766,-21.2766 -21.2766,-46.8085 0,-25.5319 21.2766,-46.8085 l 263.829795,-268.0851 q 25.5319,-25.5319 63.8298,-14.8936 38.2978,10.6383 48.9361,46.8085 10.6383,36.1702 -19.1489,65.9574 z"
         id="path32"
         style="fill:#ffffff;stroke:none;stroke-width:1" /><path
         fill="currentColor"
         d="m -272.5217,3416.6582 q -140.4255,0 -238.2979,97.8724 -97.8723,97.8723 -97.8723,238.2978 v 927.6596 q 4.2553,140.4255 100,238.2979 95.7447,97.8723 236.1702,97.8723 h 927.65949 q 140.42561,-4.2553 238.29791,-100 97.8724,-95.7447 97.8724,-236.1702 v -927.6596 q 0,-140.4255 -97.8724,-238.2978 -97.8723,-97.8724 -238.29791,-97.8724 z m 710.6383,485.1064 263.82979,268.0851 q 21.27661,21.2766 21.27661,46.8085 0,25.5319 -21.27661,46.8085 L 438.1166,4531.5518 q -21.2766,17.0213 -48.9362,17.0213 -27.6596,0 -46.8085,-19.1489 -19.1489,-19.149 -19.1489,-46.8085 0,-27.6596 21.2766,-48.9362 L 561.52079,4216.6582 344.4996,3999.6369 q -29.7873,-29.7872 -19.149,-65.9574 10.6383,-36.1702 48.9362,-46.8085 38.2979,-10.6383 63.8298,14.8936 z M 38.116595,3999.6369 -178.9047,4216.6582 38.116595,4433.6795 q 29.7872,29.7872 19.1489,65.9574 -10.6383,36.1702 -48.9361,46.8085 -38.2979,10.6383 -63.8298,-14.8936 L -319.3302,4263.4667 q -21.2766,-21.2766 -21.2766,-46.8085 0,-25.5319 21.2766,-46.8085 l 263.829795,-268.0851 q 25.5319,-25.5319 63.8298,-14.8936 38.2978,10.6383 48.9361,46.8085 10.6383,36.1702 -19.1489,65.9574 z"
         id="path41"
         style="fill:url(#radialGradient42);stroke:none;stroke-width:1" /><path
         fill="currentColor"
         d="m -272.5217,3416.6582 q -140.4255,0 -238.2979,97.8724 -97.8723,97.8723 -97.8723,238.2978 v 927.6596 q 4.2553,140.4255 100,238.2979 95.7447,97.8723 236.1702,97.8723 h 927.65949 q 140.42561,-4.2553 238.29791,-100 97.8724,-95.7447 97.8724,-236.1702 v -927.6596 q 0,-140.4255 -97.8724,-238.2978 -97.8723,-97.8724 -238.29791,-97.8724 z m 710.6383,485.1064 263.82979,268.0851 q 21.27661,21.2766 21.27661,46.8085 0,25.5319 -21.27661,46.8085 L 438.1166,4531.5518 q -21.2766,17.0213 -48.9362,17.0213 -27.6596,0 -46.8085,-19.1489 -19.1489,-19.149 -19.1489,-46.8085 0,-27.6596 21.2766,-48.9362 L 561.52079,4216.6582 344.4996,3999.6369 q -29.7873,-29.7872 -19.149,-65.9574 10.6383,-36.1702 48.9362,-46.8085 38.2979,-10.6383 63.8298,14.8936 z M 38.116595,3999.6369 -178.9047,4216.6582 38.116595,4433.6795 q 29.7872,29.7872 19.1489,65.9574 -10.6383,36.1702 -48.9361,46.8085 -38.2979,10.6383 -63.8298,-14.8936 L -319.3302,4263.4667 q -21.2766,-21.2766 -21.2766,-46.8085 0,-25.5319 21.2766,-46.8085 l 263.829795,-268.0851 q 25.5319,-25.5319 63.8298,-14.8936 38.2978,10.6383 48.9361,46.8085 10.6383,36.1702 -19.1489,65.9574 z"
         id="path42"
         style="fill:url(#radialGradient43);stroke:none;stroke-width:1" /><path
         fill="currentColor"
         d="m -272.5217,3416.6582 q -140.4255,0 -238.2979,97.8724 -97.8723,97.8723 -97.8723,238.2978 v 927.6596 q 4.2553,140.4255 100,238.2979 95.7447,97.8723 236.1702,97.8723 h 927.65949 q 140.42561,-4.2553 238.29791,-100 97.8724,-95.7447 97.8724,-236.1702 v -927.6596 q 0,-140.4255 -97.8724,-238.2978 -97.8723,-97.8724 -238.29791,-97.8724 z m 710.6383,485.1064 263.82979,268.0851 q 21.27661,21.2766 21.27661,46.8085 0,25.5319 -21.27661,46.8085 L 438.1166,4531.5518 q -21.2766,17.0213 -48.9362,17.0213 -27.6596,0 -46.8085,-19.1489 -19.1489,-19.149 -19.1489,-46.8085 0,-27.6596 21.2766,-48.9362 L 561.52079,4216.6582 344.4996,3999.6369 q -29.7873,-29.7872 -19.149,-65.9574 10.6383,-36.1702 48.9362,-46.8085 38.2979,-10.6383 63.8298,14.8936 z M 38.116595,3999.6369 -178.9047,4216.6582 38.116595,4433.6795 q 29.7872,29.7872 19.1489,65.9574 -10.6383,36.1702 -48.9361,46.8085 -38.2979,10.6383 -63.8298,-14.8936 L -319.3302,4263.4667 q -21.2766,-21.2766 -21.2766,-46.8085 0,-25.5319 21.2766,-46.8085 l 263.829795,-268.0851 q 25.5319,-25.5319 63.8298,-14.8936 38.2978,10.6383 48.9361,46.8085 10.6383,36.1702 -19.1489,65.9574 z"
         id="path43"
         style="fill:url(#radialGradient44);stroke:none;stroke-width:1" /><path
         fill="currentColor"
         d="m -272.5217,3416.6582 q -140.4255,0 -238.2979,97.8724 -97.8723,97.8723 -97.8723,238.2978 v 927.6596 q 4.2553,140.4255 100,238.2979 95.7447,97.8723 236.1702,97.8723 h 927.65949 q 140.42561,-4.2553 238.29791,-100 97.8724,-95.7447 97.8724,-236.1702 v -927.6596 q 0,-140.4255 -97.8724,-238.2978 -97.8723,-97.8724 -238.29791,-97.8724 z m 710.6383,485.1064 263.82979,268.0851 q 21.27661,21.2766 21.27661,46.8085 0,25.5319 -21.27661,46.8085 L 438.1166,4531.5518 q -21.2766,17.0213 -48.9362,17.0213 -27.6596,0 -46.8085,-19.1489 -19.1489,-19.149 -19.1489,-46.8085 0,-27.6596 21.2766,-48.9362 L 561.52079,4216.6582 344.4996,3999.6369 q -29.7873,-29.7872 -19.149,-65.9574 10.6383,-36.1702 48.9362,-46.8085 38.2979,-10.6383 63.8298,14.8936 z M 38.116595,3999.6369 -178.9047,4216.6582 38.116595,4433.6795 q 29.7872,29.7872 19.1489,65.9574 -10.6383,36.1702 -48.9361,46.8085 -38.2979,10.6383 -63.8298,-14.8936 L -319.3302,4263.4667 q -21.2766,-21.2766 -21.2766,-46.8085 0,-25.5319 21.2766,-46.8085 l 263.829795,-268.0851 q 25.5319,-25.5319 63.8298,-14.8936 38.2978,10.6383 48.9361,46.8085 10.6383,36.1702 -19.1489,65.9574 z"
         id="path44"
         style="fill:url(#radialGradient45);stroke:none;stroke-width:1" /><path
         fill="currentColor"
         d="m -272.5217,3416.6582 q -140.4255,0 -238.2979,97.8724 -97.8723,97.8723 -97.8723,238.2978 v 927.6596 q 4.2553,140.4255 100,238.2979 95.7447,97.8723 236.1702,97.8723 h 927.65949 q 140.42561,-4.2553 238.29791,-100 97.8724,-95.7447 97.8724,-236.1702 v -927.6596 q 0,-140.4255 -97.8724,-238.2978 -97.8723,-97.8724 -238.29791,-97.8724 z m 710.6383,485.1064 263.82979,268.0851 q 21.27661,21.2766 21.27661,46.8085 0,25.5319 -21.27661,46.8085 L 438.1166,4531.5518 q -21.2766,17.0213 -48.9362,17.0213 -27.6596,0 -46.8085,-19.1489 -19.1489,-19.149 -19.1489,-46.8085 0,-27.6596 21.2766,-48.9362 L 561.52079,4216.6582 344.4996,3999.6369 q -29.7873,-29.7872 -19.149,-65.9574 10.6383,-36.1702 48.9362,-46.8085 38.2979,-10.6383 63.8298,14.8936 z M 38.116595,3999.6369 -178.9047,4216.6582 38.116595,4433.6795 q 29.7872,29.7872 19.1489,65.9574 -10.6383,36.1702 -48.9361,46.8085 -38.2979,10.6383 -63.8298,-14.8936 L -319.3302,4263.4667 q -21.2766,-21.2766 -21.2766,-46.8085 0,-25.5319 21.2766,-46.8085 l 263.829795,-268.0851 q 25.5319,-25.5319 63.8298,-14.8936 38.2978,10.6383 48.9361,46.8085 10.6383,36.1702 -19.1489,65.9574 z"
         id="path45"
         style="fill:url(#radialGradient46);stroke:none;stroke-width:1" /><path
         fill="currentColor"
         d="m -272.5217,3416.6582 q -140.4255,0 -238.2979,97.8724 -97.8723,97.8723 -97.8723,238.2978 v 927.6596 q 4.2553,140.4255 100,238.2979 95.7447,97.8723 236.1702,97.8723 h 927.65949 q 140.42561,-4.2553 238.29791,-100 97.8724,-95.7447 97.8724,-236.1702 v -927.6596 q 0,-140.4255 -97.8724,-238.2978 -97.8723,-97.8724 -238.29791,-97.8724 z m 710.6383,485.1064 263.82979,268.0851 q 21.27661,21.2766 21.27661,46.8085 0,25.5319 -21.27661,46.8085 L 438.1166,4531.5518 q -21.2766,17.0213 -48.9362,17.0213 -27.6596,0 -46.8085,-19.1489 -19.1489,-19.149 -19.1489,-46.8085 0,-27.6596 21.2766,-48.9362 L 561.52079,4216.6582 344.4996,3999.6369 q -29.7873,-29.7872 -19.149,-65.9574 10.6383,-36.1702 48.9362,-46.8085 38.2979,-10.6383 63.8298,14.8936 z M 38.116595,3999.6369 -178.9047,4216.6582 38.116595,4433.6795 q 29.7872,29.7872 19.1489,65.9574 -10.6383,36.1702 -48.9361,46.8085 -38.2979,10.6383 -63.8298,-14.8936 L -319.3302,4263.4667 q -21.2766,-21.2766 -21.2766,-46.8085 0,-25.5319 21.2766,-46.8085 l 263.829795,-268.0851 q 25.5319,-25.5319 63.8298,-14.8936 38.2978,10.6383 48.9361,46.8085 10.6383,36.1702 -19.1489,65.9574 z"
         id="path46"
         style="fill:url(#radialGradient47);stroke:none;stroke-width:1" /></g><path
       fill="currentColor"
       d="m -272.5217,3416.6582 q -140.4255,0 -238.2979,97.8724 -97.8723,97.8723 -97.8723,238.2978 v 927.6596 q 4.2553,140.4255 100,238.2979 95.7447,97.8723 236.1702,97.8723 h 927.6595 q 140.4256,-4.2553 238.2979,-100 97.8724,-95.7447 97.8724,-236.1702 v -927.6596 q 0,-140.4255 -97.8724,-238.2978 -97.8723,-97.8724 -238.2979,-97.8724 z m 710.6383,485.1064 263.8298,268.0851 q 21.2766,21.2766 21.2766,46.8085 0,25.5319 -21.2766,46.8085 l -263.8298,268.0851 q -21.2766,17.0213 -48.9362,17.0213 -27.6596,0 -46.8085,-19.1489 -19.1489,-19.149 -19.1489,-46.8085 0,-27.6596 21.2766,-48.9362 L 561.5208,4216.6582 344.4996,3999.6369 q -29.7873,-29.7872 -19.149,-65.9574 10.6383,-36.1702 48.9362,-46.8085 38.2979,-10.6383 63.8298,14.8936 z M 38.116597,3999.6369 -178.9047,4216.6582 38.116597,4433.6795 q 29.7872,29.7872 19.1489,65.9574 -10.6383,36.1702 -48.9360995,46.8085 -38.2979005,10.6383 -63.8298005,-14.8936 L -319.3302,4263.4667 q -21.2766,-21.2766 -21.2766,-46.8085 0,-25.5319 21.2766,-46.8085 l 263.829797,-268.0851 q 25.5319,-25.5319 63.8298005,-14.8936 38.2977995,10.6383 48.9360995,46.8085 10.6383,36.1702 -19.1489,65.9574 z"
       id="path33"
       style="mix-blend-mode:screen;fill:#000000;stroke:none;stroke-width:1;filter:url(#filter36)" /><path
       fill="currentColor"
       d="m -272.5217,3416.6582 q -140.4255,0 -238.2979,97.8724 -97.8723,97.8723 -97.8723,238.2978 v 927.6596 q 4.2553,140.4255 100,238.2979 95.7447,97.8723 236.1702,97.8723 h 927.65949 q 140.42561,-4.2553 238.29791,-100 97.8724,-95.7447 97.8724,-236.1702 v -927.6596 q 0,-140.4255 -97.8724,-238.2978 -97.8723,-97.8724 -238.29791,-97.8724 z m 710.6383,485.1064 263.82979,268.0851 q 21.27661,21.2766 21.27661,46.8085 0,25.5319 -21.27661,46.8085 L 438.1166,4531.5518 q -21.2766,17.0213 -48.9362,17.0213 -27.6596,0 -46.8085,-19.1489 -19.1489,-19.149 -19.1489,-46.8085 0,-27.6596 21.2766,-48.9362 L 561.5208,4216.6582 344.4996,3999.6369 q -29.7873,-29.7872 -19.149,-65.9574 10.6383,-36.1702 48.9362,-46.8085 38.2979,-10.6383 63.8298,14.8936 z m -400,97.8723 -217.0213,217.0213 217.0213,217.0213 q 29.7872,29.7872 19.1489,65.9574 -10.6383,36.1702 -48.9361,46.8085 -38.2979,10.6383 -63.8298,-14.8936 l -263.8298,-268.0851 q -21.2766,-21.2766 -21.2766,-46.8085 0,-25.5319 21.2766,-46.8085 l 263.8298,-268.0851 q 25.5319,-25.5319 63.8298,-14.8936 38.2978,10.6383 48.9361,46.8085 10.6383,36.1702 -19.1489,65.9574 z"
       id="path36"
       style="fill:none;stroke:url(#linearGradient38);stroke-width:6;stroke-dasharray:none" /></g></svg>
