<?xml version="1.0" encoding="UTF-8" standalone="no"?>
<svg
   height="600"
   viewBox="0 -960 24000 24000"
   width="600"
   fill="#e3e3e3"
   version="1.1"
   id="svg1"
   sodipodi:docname="icon.svg"
   inkscape:version="1.3 (0e150ed6c4, 2023-07-21)"
   xmlns:inkscape="http://www.inkscape.org/namespaces/inkscape"
   xmlns:sodipodi="http://sodipodi.sourceforge.net/DTD/sodipodi-0.dtd"
   xmlns="http://www.w3.org/2000/svg"
   xmlns:svg="http://www.w3.org/2000/svg">
  <defs
     id="defs1" />
  <sodipodi:namedview
     id="namedview1"
     pagecolor="#505050"
     bordercolor="#eeeeee"
     borderopacity="1"
     inkscape:showpageshadow="0"
     inkscape:pageopacity="0"
     inkscape:pagecheckerboard="0"
     inkscape:deskcolor="#505050"
     showgrid="false"
     inkscape:zoom="0.83333334"
     inkscape:cx="234"
     inkscape:cy="298.8"
     inkscape:window-width="1600"
     inkscape:window-height="829"
     inkscape:window-x="-8"
     inkscape:window-y="-8"
     inkscape:window-maximized="1"
     inkscape:current-layer="svg1" />
  <rect
     style="fill:#000000;stroke-width:160"
     id="rect2"
     width="24000"
     height="24000"
     x="0"
     y="-960" />
  <path
     d="M 8501.9606,19960 H 4675.9802 q -628.1166,0 -1111.9391,-482.269 Q 3080,18995.681 3080,18369.867 v -3681.27 q 1005.6862,-108.914 1705.2941,-816.85 699.6077,-707.938 699.6077,-1709.939 0,-1002.002 -699.6077,-1709.939 Q 4085.6862,9743.9309 3080,9635.0182 V 5931.9657 q 0,-625.5983 484.0411,-1107.8662 483.8225,-482.2681 1111.9391,-482.2681 H 8436.3724 Q 8676.8625,3405.177 9354.608,2762.5886 10032.352,2120 10950.587,2120 q 918.236,0 1595.982,642.5886 677.744,642.5884 918.234,1579.2428 h 3694.804 q 627.897,0 1111.938,482.2681 484.042,482.2679 484.042,1107.8662 v 3681.2701 q 940.098,239.6092 1552.256,958.4362 612.157,718.829 612.157,1633.701 0,914.871 -612.157,1557.46 -612.158,642.59 -1552.256,882.199 v 3724.835 q 0,625.814 -484.042,1107.864 Q 17787.504,19960 17159.607,19960 h -3847.843 q -43.726,-1154.481 -743.333,-1884.199 -699.608,-729.721 -1661.569,-729.721 -961.9602,0 -1661.5684,729.721 -699.6076,729.718 -743.333,1884.199 z"
     id="path1"
     style="fill:#ffffff;stroke-width:0.999993" />
</svg>
