<?xml version="1.0" encoding="UTF-8" standalone="no"?>
<svg
   height="600"
   viewBox="0 -960 24000 24000"
   width="600"
   fill="#e3e3e3"
   version="1.1"
   id="svg1"
   sodipodi:docname="icon.svg"
   inkscape:version="1.3 (0e150ed6c4, 2023-07-21)"
   xmlns:inkscape="http://www.inkscape.org/namespaces/inkscape"
   xmlns:sodipodi="http://sodipodi.sourceforge.net/DTD/sodipodi-0.dtd"
   xmlns="http://www.w3.org/2000/svg"
   xmlns:svg="http://www.w3.org/2000/svg">
  <defs
     id="defs1" />
  <sodipodi:namedview
     id="namedview1"
     pagecolor="#505050"
     bordercolor="#eeeeee"
     borderopacity="1"
     inkscape:showpageshadow="0"
     inkscape:pageopacity="0"
     inkscape:pagecheckerboard="0"
     inkscape:deskcolor="#505050"
     showgrid="false"
     inkscape:zoom="0.83333334"
     inkscape:cx="234"
     inkscape:cy="298.8"
     inkscape:window-width="1600"
     inkscape:window-height="829"
     inkscape:window-x="-8"
     inkscape:window-y="-8"
     inkscape:window-maximized="1"
     inkscape:current-layer="svg1" />
  <rect
     style="fill:#000000;stroke-width:160"
     id="rect2"
     width="24000"
     height="24000"
     x="0"
     y="-960" />
  <path
     d="M 9176.4704,18240 H 6088.2351 q -506.9999,0 -897.5293,-389.275 Q 4800,17461.626 4800,16956.484 v -2971.428 q 811.7646,-87.913 1376.4705,-659.341 564.7058,-571.429 564.7058,-1380.219 0,-808.791 -564.7058,-1380.221 Q 5611.7646,9993.8456 4800,9905.934 V 6916.9231 q 0,-504.9674 390.7058,-894.2419 390.5294,-389.2746 897.5293,-389.2746 H 9123.5292 Q 9317.6468,4877.3627 9864.706,4358.6814 10411.764,3840 11152.94,3840 q 741.178,0 1288.237,518.6814 547.057,518.6813 741.175,1274.7252 h 2982.354 q 506.822,0 897.527,389.2746 390.707,389.2745 390.707,894.2419 v 2971.4287 q 758.824,193.4062 1252.942,773.6252 494.118,580.221 494.118,1318.683 0,738.461 -494.118,1257.143 -494.118,518.682 -1252.942,712.088 v 3006.593 q 0,505.142 -390.707,894.241 -390.705,389.275 -897.527,389.275 h -3105.883 q -35.294,-931.868 -600,-1520.879 -564.705,-589.012 -1341.177,-589.012 -776.469,0 -1341.1759,589.012 -564.7057,589.011 -599.9997,1520.879 z"
     id="path1"
     style="fill:#ffffff;stroke-width:0.999995" />
</svg>
