<?xml version="1.0" encoding="UTF-8" standalone="no"?>
<svg
   height="600"
   viewBox="0 -960 24000 24000"
   width="600"
   fill="#e3e3e3"
   version="1.1"
   id="svg1"
   sodipodi:docname="icon.svg"
   inkscape:version="1.3 (0e150ed6c4, 2023-07-21)"
   xmlns:inkscape="http://www.inkscape.org/namespaces/inkscape"
   xmlns:sodipodi="http://sodipodi.sourceforge.net/DTD/sodipodi-0.dtd"
   xmlns="http://www.w3.org/2000/svg"
   xmlns:svg="http://www.w3.org/2000/svg">
  <defs
     id="defs1" />
  <sodipodi:namedview
     id="namedview1"
     pagecolor="#505050"
     bordercolor="#eeeeee"
     borderopacity="1"
     inkscape:showpageshadow="0"
     inkscape:pageopacity="0"
     inkscape:pagecheckerboard="0"
     inkscape:deskcolor="#505050"
     showgrid="false"
     inkscape:zoom="0.83333334"
     inkscape:cx="234"
     inkscape:cy="298.8"
     inkscape:window-width="1600"
     inkscape:window-height="829"
     inkscape:window-x="-8"
     inkscape:window-y="-8"
     inkscape:window-maximized="1"
     inkscape:current-layer="svg1" />
  <rect
     style="fill:#000000;stroke-width:160"
     id="rect2"
     width="24000"
     height="24000"
     x="0"
     y="-960" />
  <path
     d="M 9176.4704,18240 H 6088.2351 q -506.9999,0 -897.5293,-389.275 Q 4800,17461.626 4800,16956.484 v -2971.428 q 811.7646,-87.913 1376.4705,-659.341 564.7058,-571.429 564.7058,-1380.219 0,-808.791 -564.7058,-1380.221 Q 5611.7646,9993.8456 4800,9905.934 V 6916.9231 q 0,-504.9674 390.7058,-894.2419 390.5294,-389.2746 897.5293,-389.2746 H 9123.5292 Q 9317.6468,4877.3627 9864.706,4358.6814 10411.764,3840 11152.94,3840 q 741.178,0 1288.237,518.6814 547.057,518.6813 741.175,1274.7252 h 2982.354 q 506.822,0 897.527,389.2746 390.707,389.2745 390.707,894.2419 v 2971.4287 q 758.824,193.4062 1252.942,773.6252 494.118,580.221 494.118,1318.683 0,738.461 -494.118,1257.143 -494.118,518.682 -1252.942,712.088 v 3006.593 q 0,505.142 -390.707,894.241 -390.705,389.275 -897.527,389.275 h -3105.883 q -35.294,-931.868 -600,-1520.879 -564.705,-589.012 -1341.177,-589.012 -776.469,0 -1341.1759,589.012 -564.7057,589.011 -599.9997,1520.879 z"
     id="path1"
     style="fill:#ffffff;stroke-width:0.999995" />
  <path
     id="path9"
     style="fill:#00ff00;stroke-width:160"
     d="m 22784.031,55400 a 4344,4344 0 0 1 4344.062,4343.984 4344,4344 0 0 1 -316.25,1600 h 3972.188 v 16000 h -16000 v -3972.265 a 4344,4344 0 0 0 376.172,140.312 4344,4344 0 0 0 605.625,131.719 4344,4344 0 0 0 618.203,44.219 4344,4344 0 0 0 618.281,-44.219 4344,4344 0 0 0 605.625,-131.719 4344,4344 0 0 0 580.703,-216.562 4344,4344 0 0 0 543.984,-297.031 4344,4344 0 0 0 496.172,-371.485 4344,4344 0 0 0 438.203,-438.203 4344,4344 0 0 0 371.485,-496.172 4344,4344 0 0 0 297.031,-543.984 4344,4344 0 0 0 216.563,-580.782 4344,4344 0 0 0 131.796,-605.624 4344,4344 0 0 0 44.219,-618.204 4344,4344 0 0 0 -44.219,-618.203 4344,4344 0 0 0 -131.796,-605.625 4344,4344 0 0 0 -216.563,-580.703 4344,4344 0 0 0 -297.031,-543.984 4344,4344 0 0 0 -371.485,-496.172 4344,4344 0 0 0 -438.203,-438.281 4344,4344 0 0 0 -496.172,-371.407 4344,4344 0 0 0 -543.984,-297.031 4344,4344 0 0 0 -580.703,-216.64 4344,4344 0 0 0 -605.625,-131.719 4344,4344 0 0 0 -618.281,-44.219 4344,4344 0 0 0 -213.125,5.234 4344,4344 0 0 0 -212.656,15.704 4344,4344 0 0 0 -211.563,26.093 4344,4344 0 0 0 -210.078,36.407 4344,4344 0 0 0 -208.047,46.718 4344,4344 0 0 0 -205.469,56.875 4344,4344 0 0 0 -202.5,66.875 4344,4344 0 0 0 -136.562,52.735 v -3962.657 h 3972.265 a 4344,4344 0 0 1 -316.25,-1600 A 4344,4344 0 0 1 22784.031,55400 Z" />
  <path
     id="path10"
     style="fill:#ffff00;stroke-width:160"
     d="m 20728.015,69343.907 a 4344,4344 0 0 1 -4343.984,4344.062 4344,4344 0 0 1 -1600,-316.25 v 3972.188 H -1215.9692 v -16000 h 3972.265 a 4344,4344 0 0 0 -140.312,376.172 4344,4344 0 0 0 -131.719,605.625 4344,4344 0 0 0 -44.219,618.203 4344,4344 0 0 0 44.219,618.281 4344,4344 0 0 0 131.719,605.625 4344,4344 0 0 0 216.562,580.703 4344,4344 0 0 0 297.031,543.985 4344,4344 0 0 0 371.485,496.171 4344,4344 0 0 0 438.203,438.204 4344,4344 0 0 0 496.172,371.484 4344,4344 0 0 0 543.984,297.031 4344,4344 0 0 0 580.782,216.563 4344,4344 0 0 0 605.624,131.797 4344,4344 0 0 0 618.204,44.218 4344,4344 0 0 0 618.203,-44.218 4344,4344 0 0 0 605.625,-131.797 4344,4344 0 0 0 580.703,-216.563 4344,4344 0 0 0 543.984,-297.031 4344,4344 0 0 0 496.172,-371.484 4344,4344 0 0 0 438.2812,-438.204 4344,4344 0 0 0 371.407,-496.171 4344,4344 0 0 0 297.031,-543.985 4344,4344 0 0 0 216.64,-580.703 4344,4344 0 0 0 131.719,-605.625 4344,4344 0 0 0 44.219,-618.281 4344,4344 0 0 0 -5.234,-213.125 4344,4344 0 0 0 -15.704,-212.656 4344,4344 0 0 0 -26.093,-211.563 4344,4344 0 0 0 -36.407,-210.078 4344,4344 0 0 0 -46.718,-208.047 4344,4344 0 0 0 -56.875,-205.469 4344,4344 0 0 0 -66.875,-202.5 4344,4344 0 0 0 -52.735,-136.562 h 3962.657 v 3972.265 a 4344,4344 0 0 1 1600,-316.25 4344,4344 0 0 1 4343.984,4343.985 z" />
  <path
     id="path11"
     style="fill:#ff0000;stroke-width:160"
     d="m 6784.0308,67287.969 a 4344,4344 0 0 1 -4344.062,-4343.984 4344,4344 0 0 1 316.25,-1600 h -3972.188 v -16000 H 14784.031 v 3972.265 a 4344,4344 0 0 0 -376.172,-140.312 4344,4344 0 0 0 -605.625,-131.719 4344,4344 0 0 0 -618.203,-44.219 4344,4344 0 0 0 -618.281,44.219 4344,4344 0 0 0 -605.625,131.719 4344,4344 0 0 0 -580.703,216.562 4344,4344 0 0 0 -543.985,297.031 4344,4344 0 0 0 -496.171,371.485 4344,4344 0 0 0 -438.2042,438.203 4344,4344 0 0 0 -371.484,496.172 4344,4344 0 0 0 -297.031,543.984 4344,4344 0 0 0 -216.563,580.782 4344,4344 0 0 0 -131.797,605.624 4344,4344 0 0 0 -44.218,618.204 4344,4344 0 0 0 44.218,618.203 4344,4344 0 0 0 131.797,605.625 4344,4344 0 0 0 216.563,580.703 4344,4344 0 0 0 297.031,543.984 4344,4344 0 0 0 371.484,496.172 4344,4344 0 0 0 438.2042,438.281 4344,4344 0 0 0 496.171,371.407 4344,4344 0 0 0 543.985,297.031 4344,4344 0 0 0 580.703,216.64 4344,4344 0 0 0 605.625,131.719 4344,4344 0 0 0 618.281,44.219 4344,4344 0 0 0 213.125,-5.234 4344,4344 0 0 0 212.656,-15.704 4344,4344 0 0 0 211.563,-26.093 4344,4344 0 0 0 210.078,-36.407 4344,4344 0 0 0 208.047,-46.718 4344,4344 0 0 0 205.469,-56.875 4344,4344 0 0 0 202.5,-66.875 4344,4344 0 0 0 136.562,-52.735 v 3962.657 h -3972.265 a 4344,4344 0 0 1 316.25,1600 4344,4344 0 0 1 -4343.9852,4343.984 z" />
  <path
     id="path12"
     style="fill:#0000ff;stroke-width:160"
     d="M 8840.0468,53344.062 A 4344,4344 0 0 1 13184.031,49000 a 4344,4344 0 0 1 1600,316.25 v -3972.188 h 16000 v 16000 h -3972.265 a 4344,4344 0 0 0 140.312,-376.172 4344,4344 0 0 0 131.719,-605.625 4344,4344 0 0 0 44.219,-618.203 4344,4344 0 0 0 -44.219,-618.281 4344,4344 0 0 0 -131.719,-605.625 4344,4344 0 0 0 -216.562,-580.703 4344,4344 0 0 0 -297.031,-543.985 4344,4344 0 0 0 -371.485,-496.171 4344,4344 0 0 0 -438.203,-438.204 4344,4344 0 0 0 -496.172,-371.484 4344,4344 0 0 0 -543.984,-297.031 4344,4344 0 0 0 -580.782,-216.563 4344,4344 0 0 0 -605.624,-131.797 4344,4344 0 0 0 -618.204,-44.218 4344,4344 0 0 0 -618.203,44.218 4344,4344 0 0 0 -605.625,131.797 4344,4344 0 0 0 -580.703,216.563 4344,4344 0 0 0 -543.984,297.031 4344,4344 0 0 0 -496.172,371.484 4344,4344 0 0 0 -438.281,438.204 4344,4344 0 0 0 -371.407,496.171 4344,4344 0 0 0 -297.031,543.985 4344,4344 0 0 0 -216.64,580.703 4344,4344 0 0 0 -131.719,605.625 4344,4344 0 0 0 -44.219,618.281 4344,4344 0 0 0 5.234,213.125 4344,4344 0 0 0 15.704,212.656 4344,4344 0 0 0 26.093,211.563 4344,4344 0 0 0 36.407,210.078 4344,4344 0 0 0 46.718,208.047 4344,4344 0 0 0 56.875,205.469 4344,4344 0 0 0 66.875,202.5 4344,4344 0 0 0 52.735,136.562 h -3962.657 v -3972.265 a 4344,4344 0 0 1 -1600,316.25 4344,4344 0 0 1 -4343.9842,-4343.985 z" />
</svg>
