<?xml version="1.0" encoding="UTF-8" standalone="no"?>
<!-- Created with Inkscape (http://www.inkscape.org/) -->

<svg
   width="761.16339"
   height="111.7221"
   viewBox="0 0 761.1634 111.7221"
   version="1.1"
   id="svg1"
   inkscape:version="1.3 (0e150ed6c4, 2023-07-21)"
   sodipodi:docname="wordmark.svg"
   xmlns:inkscape="http://www.inkscape.org/namespaces/inkscape"
   xmlns:sodipodi="http://sodipodi.sourceforge.net/DTD/sodipodi-0.dtd"
   xmlns="http://www.w3.org/2000/svg"
   xmlns:svg="http://www.w3.org/2000/svg">
  <sodipodi:namedview
     id="namedview1"
     pagecolor="#505050"
     bordercolor="#eeeeee"
     borderopacity="1"
     inkscape:showpageshadow="0"
     inkscape:pageopacity="0"
     inkscape:pagecheckerboard="0"
     inkscape:deskcolor="#505050"
     inkscape:document-units="px"
     inkscape:zoom="0.40315405"
     inkscape:cx="852.03163"
     inkscape:cy="-64.491477"
     inkscape:window-width="1600"
     inkscape:window-height="829"
     inkscape:window-x="-8"
     inkscape:window-y="-8"
     inkscape:window-maximized="1"
     inkscape:current-layer="layer1" />
  <defs
     id="defs1" />
  <g
     inkscape:label="Layer 1"
     inkscape:groupmode="layer"
     id="layer1"
     transform="translate(-159.89829,-1412.7525)">
    <path
       style="font-size:158.246px;line-height:0.9;font-family:'Gwefan Sans';-inkscape-font-specification:'Gwefan Sans';letter-spacing:0px;text-orientation:upright;fill:#ffffff;stroke-width:4"
       d="m 187.59134,1522.4174 c -2.21544,-6.6463 -4.37813,-13.4509 -6.48808,-20.4138 -2.00445,-7.0683 -4.0089,-14.2421 -6.01335,-21.5214 -1.89895,-7.2793 -3.74516,-14.6642 -5.53861,-22.1545 -1.68796,-7.4903 -3.37592,-15.0333 -5.06387,-22.6292 -1.58246,-7.5958 -3.11217,-15.2443 -4.58914,-22.9456 h 23.26216 c 1.47697,9.0727 3.16493,18.462 5.06388,28.1678 1.89895,9.7057 3.85065,19.1477 5.8551,28.326 2.10995,9.0728 4.21989,17.3543 6.32984,24.8446 1.89895,-5.2749 3.7979,-10.8662 5.69685,-16.7741 2.00445,-6.0133 3.95616,-12.0267 5.85511,-18.04 1.89895,-6.1189 3.6924,-12.0795 5.38036,-17.8818 1.68796,-5.9079 3.27042,-11.4465 4.74738,-16.6158 h 18.35654 c 2.10995,6.9628 4.37814,14.5059 6.80457,22.6292 2.42644,8.1233 4.95838,16.2465 7.59581,24.3698 2.63743,8.0178 5.16937,15.4554 7.59581,22.3127 2.00445,-7.3848 3.95615,-15.6136 5.8551,-24.6864 2.00445,-9.1783 3.90341,-18.6203 5.69686,-28.326 1.89895,-9.7057 3.63966,-19.1477 5.22212,-28.326 h 22.31268 c -1.58246,7.7013 -3.21767,15.3498 -4.90562,22.9456 -1.58246,7.5959 -3.27042,15.1389 -5.06387,22.6292 -1.68796,7.4903 -3.53416,14.8752 -5.53861,22.1545 -1.89895,7.2793 -3.9034,14.4003 -6.01335,21.3632 -2.00445,6.9628 -4.1144,13.8201 -6.32984,20.572 h -20.25549 c -2.63743,-7.0683 -5.27487,-14.2949 -7.9123,-21.6797 -2.53194,-7.4903 -5.06388,-15.1389 -7.59581,-22.9457 -2.42644,-7.8068 -4.90563,-15.7191 -7.43756,-23.7369 -2.42644,8.0178 -4.90563,15.9301 -7.43756,23.7369 -2.42644,7.8068 -4.90563,15.4554 -7.43757,22.9457 -2.53193,7.3848 -5.11662,14.6114 -7.75405,21.6797 z m 163.78455,2.0572 c -9.91675,0 -18.04005,-1.8462 -24.36989,-5.5387 -6.32984,-3.7979 -11.07722,-8.9672 -14.24214,-15.5081 -3.05942,-6.5408 -4.58913,-13.8729 -4.58913,-21.9962 0,-9.8112 1.89895,-17.9345 5.69686,-24.3698 3.7979,-6.5409 8.65078,-11.4465 14.55863,-14.7169 5.90785,-3.3759 12.18494,-5.0639 18.83127,-5.0639 7.59581,0 14.13664,1.5825 19.62251,4.7474 5.59135,3.1649 9.86399,7.8596 12.81792,14.0839 3.05943,6.2243 4.58914,14.0311 4.58914,23.4204 0,1.1605 -0.0528,2.4792 -0.15825,3.9561 -0.1055,1.477 -0.211,2.7957 -0.31649,3.9562 h -54.27838 c 0.42199,6.0133 2.69018,10.708 6.80458,14.0839 4.21989,3.3759 10.07499,5.0639 17.5653,5.0639 4.64189,0 8.91453,-0.422 12.81793,-1.266 4.0089,-0.844 7.17382,-1.7935 9.49476,-2.8484 l 3.00667,16.9323 c -2.32094,1.1605 -6.11884,2.2682 -11.39371,3.3232 -5.16937,1.1605 -10.65523,1.7407 -16.45758,1.7407 z m -21.83795,-51.5882 h 34.65587 c -0.10549,-3.2705 -0.79122,-6.2772 -2.05719,-9.0201 -1.16047,-2.8484 -2.95393,-5.1166 -5.38037,-6.8045 -2.32094,-1.688 -5.43311,-2.532 -9.33651,-2.532 -3.79791,0 -6.96283,0.8967 -9.49476,2.6902 -2.42644,1.6879 -4.32539,3.9561 -5.69686,6.8046 -1.37147,2.7429 -2.26819,5.6969 -2.69018,8.8618 z m 107.13258,51.5882 c -4.0089,0 -8.07055,-0.2638 -12.18494,-0.7913 -4.1144,-0.422 -7.96505,-0.9495 -11.55196,-1.5824 -3.58691,-0.7385 -6.69908,-1.5298 -9.33651,-2.3737 v -106.9747 h 20.57198 v 29.2759 c 2.42643,-1.1605 5.16936,-2.1627 8.22879,-3.0067 3.16492,-0.844 6.59358,-1.266 10.28599,-1.266 7.9123,0 14.55863,1.7935 19.93899,5.3804 5.48587,3.5869 9.60026,8.6508 12.34319,15.1916 2.84843,6.4353 4.27265,13.9784 4.27265,22.6292 0,8.8618 -1.68796,16.5631 -5.06388,23.1039 -3.37591,6.4353 -8.28154,11.4465 -14.71688,15.0334 -6.32984,3.5869 -13.92565,5.3804 -22.78742,5.3804 z m -0.15825,-17.7236 c 4.64189,0 8.54529,-1.055 11.71021,-3.1649 3.27041,-2.2155 5.7496,-5.2749 7.43756,-9.1783 1.68796,-3.9034 2.53194,-8.5453 2.53194,-13.9256 0,-4.0089 -0.36924,-7.5431 -1.10773,-10.6025 -0.73848,-3.1649 -1.89895,-5.8024 -3.48141,-7.9123 -1.58246,-2.2155 -3.58691,-3.8507 -6.01335,-4.9056 -2.32094,-1.1605 -5.16937,-1.7407 -8.54528,-1.7407 -2.95393,0 -5.80235,0.422 -8.54528,1.2659 -2.63743,0.844 -4.74738,1.8462 -6.32984,3.0067 v 46.0496 c 1.26597,0.211 2.95392,0.4747 5.06387,0.7912 2.10995,0.211 4.53638,0.3165 7.27931,0.3165 z m 63.14031,15.6664 v -109.6649 l 21.6797,4e-4 v 43.2011 h 45.4166 v -43.2011 h 21.67971 v 109.6645 h -21.67971 v -47.9486 h -45.4166 v 47.9486 z m 138.46532,0 v -91.308 h -33.54815 v -18.3565 h 88.61776 v 18.3565 h -33.54815 v 91.308 z m 68.20406,0 c 0.42199,-8.9673 0.89672,-18.3039 1.42421,-28.0096 l 1.89896,-29.1172 c 0.73848,-9.7058 1.52971,-19.0423 2.37369,-28.0096 0.84398,-8.9673 1.79346,-17.1433 2.84843,-24.5281 h 20.41373 c 2.21545,3.9034 4.64189,8.598 7.27932,14.0839 2.63743,5.4859 5.38036,11.3937 8.22879,17.7235 2.95393,6.3299 5.8551,12.7125 8.70353,19.1478 2.84843,6.4353 5.43311,12.3959 7.75405,17.8818 2.42644,-5.4859 5.01113,-11.4465 7.75406,-17.8818 2.84843,-6.4353 5.69685,-12.8179 8.54528,-19.1478 2.95393,-6.3298 5.74961,-12.2376 8.38704,-17.7235 2.74293,-5.4859 5.16936,-10.1805 7.27931,-14.0839 h 19.46426 c 1.05497,7.3848 2.00445,15.5608 2.84843,24.5281 0.84398,8.9673 1.58246,18.3038 2.21544,28.0096 0.73849,9.7057 1.37147,19.4115 1.89896,29.1172 0.63298,9.7057 1.16047,19.0423 1.58246,28.0096 h -21.04672 c -0.31649,-8.1233 -0.68573,-16.4576 -1.10772,-25.0029 -0.31649,-8.5453 -0.73848,-17.1961 -1.26597,-25.9524 -0.42199,-8.8617 -1.00223,-17.5125 -1.74071,-25.9523 -1.37147,3.1649 -3.00667,6.8573 -4.90562,11.0772 -1.89895,4.2199 -3.95615,8.7563 -6.1716,13.6092 -2.10995,4.7473 -4.21989,9.4947 -6.32984,14.2421 -2.00445,4.6419 -3.9034,9.02 -5.69685,13.1344 -1.79346,4.1144 -3.27042,7.5958 -4.43089,10.4443 h -15.50811 c -1.26597,-2.8485 -2.79568,-6.3299 -4.58913,-10.4443 -1.68796,-4.1144 -3.58691,-8.4925 -5.69686,-13.1344 -2.10995,-4.7474 -4.21989,-9.4948 -6.32984,-14.2421 -2.10995,-4.8529 -4.1144,-9.3893 -6.01335,-13.6092 -1.89895,-4.2199 -3.53416,-7.9123 -4.90562,-11.0772 -0.73849,8.4398 -1.37147,17.0906 -1.89896,25.9523 -0.52749,8.7563 -0.94947,17.4071 -1.26596,25.9524 -0.31649,8.5453 -0.63299,16.8796 -0.94948,25.0029 z m 143.84554,0 v -109.6645 h 21.6797 v 90.9914 h 49.21451 v 18.6731 z"
       id="text1"
       aria-label="WebHTML"
       sodipodi:nodetypes="cccccccscccccccccccccccccccccccccccsccsccsccsscccsccccsccccscccscccccccsccsccsscsscccsccccscccccccccccccccccccccccccsccscsccccccscccccccsccscccccsccsccccccccc" />
  </g>
</svg>
