<?xml version="1.0" encoding="UTF-8" standalone="no"?>
<!-- Created with Inkscape (http://www.inkscape.org/) -->

<svg
   width="437.21967"
   height="68.32"
   viewBox="0 0 437.21967 68.320003"
   version="1.1"
   id="svg1"
   inkscape:version="1.3 (0e150ed6c4, 2023-07-21)"
   sodipodi:docname="word.svg"
   xmlns:inkscape="http://www.inkscape.org/namespaces/inkscape"
   xmlns:sodipodi="http://sodipodi.sourceforge.net/DTD/sodipodi-0.dtd"
   xmlns="http://www.w3.org/2000/svg"
   xmlns:svg="http://www.w3.org/2000/svg">
  <sodipodi:namedview
     id="namedview1"
     pagecolor="#505050"
     bordercolor="#eeeeee"
     borderopacity="1"
     inkscape:showpageshadow="0"
     inkscape:pageopacity="0"
     inkscape:pagecheckerboard="0"
     inkscape:deskcolor="#505050"
     inkscape:document-units="px"
     inkscape:zoom="1.1402918"
     inkscape:cx="227.13484"
     inkscape:cy="-21.924212"
     inkscape:window-width="1600"
     inkscape:window-height="829"
     inkscape:window-x="-8"
     inkscape:window-y="-8"
     inkscape:window-maximized="1"
     inkscape:current-layer="layer1" />
  <defs
     id="defs1" />
  <g
     inkscape:label="Layer 1"
     inkscape:groupmode="layer"
     id="layer1"
     transform="translate(17.613307,-1457.3445)">
    <path
       style="font-size:93.3333px;line-height:0.9;font-family:'Brand Sans';-inkscape-font-specification:'Brand Sans';font-feature-settings:'ss02', 'ss05';letter-spacing:0px;text-orientation:upright;fill:#ffffff;stroke:none;stroke-width:6"
       d="M 0.21335287,1524.1711 -17.613307,1457.3445 h 9.6133297 l 11.8066621,47.5533 1.1199996,4.6667 h 0.2799999 l 1.3999995,-4.6667 14.6066612,-37.2866 h 8.866663 l 13.953328,37.2866 1.4,4.6667 h 0.326666 l 1.12,-4.6667 11.619995,-47.5533 h 9.846663 l -17.873326,66.8266 h -9.19333 l -14.093328,-40.5533 -1.493333,-5.2733 h -0.28 l -1.586666,5.2733 -14.4666609,40.5533 z M 77.866643,1495.3778 h 27.813327 q -0.28,-5.3666 -3.96667,-8.9133 -3.686665,-3.5933 -9.753329,-3.5933 -6.486664,0 -10.499996,4.7133 -2.706666,3.1267 -3.593332,7.7933 z m 14.653328,30.2867 q -10.546663,0 -17.26666,-7.14 -6.719998,-7.14 -6.719998,-18.2467 0,-10.92 6.626664,-18.1066 6.626664,-7.1867 16.799994,-7.1867 10.266659,0 16.566659,6.2533 6.34667,6.2534 6.34667,15.6334 v 5.18 H 77.49331 q 0.466666,6.7666 4.433331,11.0133 4.479999,4.8066 11.246663,4.8066 3.126665,0 5.413331,-0.84 2.286665,-0.8866 4.106665,-2.4266 1.82,-1.54 4.15333,-4.9934 l 6.95333,3.8267 q -2.66,4.9933 -5.74,7.42 -3.03333,2.38 -6.71999,3.5933 -3.640001,1.2134 -8.819999,1.2134 z m 56.606619,0 q -5.08667,0 -9.52,-2.2867 -4.38667,-2.3333 -6.67333,-6.02 h -0.28 v 6.8133 h -8.63333 v -66.8266 h 9.05333 v 25.9467 h 0.28 q 2.28666,-3.6867 6.53333,-5.9734 4.24666,-2.3333 9.28666,-2.3333 9.70667,0 16.19333,7.0467 6.48666,7 6.48666,18.1533 0,11.1066 -6.48666,18.2933 -6.44,7.1867 -16.23999,7.1867 z m -1.30667,-7.98 q 6.39333,0 10.73333,-4.9 4.34,-4.9467 4.34,-12.5533 0,-7.6534 -4.38667,-12.4134 -4.38666,-4.8066 -10.68666,-4.8066 -6.25333,0 -10.68666,4.76 -4.43333,4.76 -4.43333,12.4133 0,7.6533 4.38666,12.6 4.38667,4.9 10.73333,4.9 z m 34.62674,6.4866 v -66.8266 h 9.05333 v 28.3733 h 33.08666 v -28.3733 h 9.05333 v 66.8266 h -9.05333 v -29.8666 h -33.08666 v 29.8666 z m 60.89988,-58.2399 v -8.5867 h 46.29332 v 8.5867 h -18.57333 v 58.2399 h -9.05333 v -58.2399 z m 55.99993,58.2399 v -66.8266 h 12.46 l 21.09332,43.8667 h 0.28 l 21.04666,-43.8667 h 12.50666 v 66.8266 h -8.91333 v -41.7666 l 0.37334,-12.3667 h -0.32667 l -21.18666,42 h -7.27999 l -21.23333,-42 h -0.28 l 0.37333,12.3667 v 41.7666 z m 82.13324,0 v -66.8266 h 9.05333 v 58.24 h 29.07333 v 8.5866 z"
       id="text1"
       aria-label="WebHTML" />
  </g>
</svg>
